# xmcd CD database file
#
# Track frame offsets:
#	150
#	10367
#	22955
#	38682
#	51047
#	58322
#	69403
#	81935
#	95540
#	111625
#	123497
#	135086
#	145046
#	157724
#	167706
#	178267
#	187162
#	199675
#	210531
#	221792
#	232763
#	244143
#	256777
#	267016
#
# Disc length: 3698 seconds
#
# Revision: 2
# Processed by: cddbd v1.4b41PL1 Copyright (c) Steve Scherf et al.
# Submitted via: Feurio! 1.52 - http://www.feurio.com
#
DISCID=4f0e7018
DTITLE=The Kingston Trio - Make Way - New Frontier
DYEAR=1900
DGENRE=
TTITLE0=En El Agua
TTITLE1=Come All You Fair And Tender Ladies
TTITLE2=The Jug Of Punch
TTITLE3=Bonny Hielan' Laddie
TTITLE4=Utawena
TTITLE5=Hard Travelin'
TTITLE6=Hangman
TTITLE7=Speckled Roan
TTITLE8=The River Is Wide
TTITLE9=Oh, Yes, Oh!
TTITLE10=Blow The Candle Out
TTITLE11=Blue Eyed Gal
TTITLE12=Greenback Dollar
TTITLE13=Some Fool Made Soldier Of Me
TTITLE14=To Be Redeemed
TTITLE15=Honey, Are You Mad At Your Man?
TTITLE16=Adios Farewell
TTITLE17=Poor Ellen Smith
TTITLE18=My Lord What A Mornin'
TTITLE19=Long Black Veil
TTITLE20=Genny Glenn
TTITLE21=The First Time
TTITLE22=Dogie's Lament
TTITLE23=The New Frontier
EXTD=
EXTT0=LP - Make Way - 1961, Capitol Records
EXTT1=LP - Make Way - 1961, Capitol Records
EXTT2=LP - Make Way - 1961, Capitol Records
EXTT3=LP - Make Way - 1961, Capitol Records
EXTT4=LP - Make Way - 1961, Capitol Records
EXTT5=LP - Make Way - 1961, Capitol Records
EXTT6=LP - Make Way - 1961, Capitol Records
EXTT7=LP - Make Way - 1961, Capitol Records
EXTT8=LP - Make Way - 1961, Capitol Records
EXTT9=LP - Make Way - 1961, Capitol Records
EXTT10=LP - Make Way - 1961, Capitol Records
EXTT11=LP - Make Way - 1961, Capitol Records
EXTT12=LP - New Frontier - 1963, Capitol Records
EXTT13=LP - New Frontier - 1963, Capitol Records
EXTT14=LP - New Frontier - 1963, Capitol Records
EXTT15=LP - New Frontier - 1963, Capitol Records
EXTT16=LP - New Frontier - 1963, Capitol Records
EXTT17=LP - New Frontier - 1963, Capitol Records
EXTT18=LP - New Frontier - 1963, Capitol Records
EXTT19=LP - New Frontier - 1963, Capitol Records
EXTT20=LP - New Frontier - 1963, Capitol Records
EXTT21=LP - New Frontier - 1963, Capitol Records
EXTT22=LP - New Frontier - 1963, Capitol Records
EXTT23=LP - New Frontier - 1963, Capitol Records
PLAYORDER=
